<svg xmlns="http://www.w3.org/2000/svg" xmlns:xlink="http://www.w3.org/1999/xlink" version="1.1" x="0px" y="0px" viewBox="0 0 100 125" enable-background="new 0 0 100 100" xml:space="preserve"><path d="M82.786,92.187l-65.572-0.042l8.211-23.633h11.03l0.162-13.3l27.204,0.192l0.217,0.13c0.003,0.002,0.745,0.429,1.64,0.429  c0.763,0,1.399-0.304,1.944-0.93c0.053-0.312-0.259-1.482-1.573-3.238c-3.022-4.036-9.507-8.749-17.832-8.749  c-4.504,0-9.137,1.349-13.769,4.011l-0.213,0.124c-0.455,0.268-0.886,0.521-1.412,0.521c-0.154,0-0.307-0.022-0.453-0.067  c-1.439-0.441-1.979-2.534-1.646-6.399c0.281-3.288,1.169-7.488,2.498-11.828c1.78-5.813,5.679-15.653,8.991-15.653  c0.176,0,0.348,0.026,0.511,0.076c0.82,0.251,1.107,1.016,1.386,1.755c0.043,0.115,0.089,0.236,0.139,0.363  c1.767,4.497,9.977,19.083,20.795,26.295c6.388,4.258,9.572,9.489,8.518,13.992c-0.792,3.385-3.883,5.816-8.336,6.606v5.674  l8.939,0.03L82.786,92.187z M19.81,90.3l60.338,0.039L72.87,70.388l-9.492-0.032v-9.117l0.806-0.104  c4.09-0.526,6.923-2.515,7.579-5.319c0.872-3.723-2.023-8.221-7.744-12.035c-11.187-7.457-19.666-22.515-21.489-27.156  c-0.054-0.136-0.103-0.266-0.148-0.389c-0.079-0.212-0.184-0.489-0.26-0.63c-1.047,0.246-4.333,5.198-7.134,14.343  c-2.79,9.108-2.853,15.04-2.106,15.88c0.098-0.05,0.278-0.157,0.418-0.239l0.229-0.134c4.915-2.824,9.857-4.256,14.688-4.256  c11.525,0,18.939,7.945,20.724,11.792c0.665,1.434,0.708,2.508,0.128,3.192c-0.9,1.063-2.072,1.626-3.391,1.626  c-1.062,0-1.937-0.359-2.348-0.562l-24.889-0.176l-0.162,13.287H26.738L19.81,90.3z"/><text x="0" y="115" fill="#000000" font-size="5px" font-weight="bold" font-family="'Helvetica Neue', Helvetica, Arial-Unicode, Arial, Sans-serif">Created by Jamil Ramirez</text><text x="0" y="120" fill="#000000" font-size="5px" font-weight="bold" font-family="'Helvetica Neue', Helvetica, Arial-Unicode, Arial, Sans-serif">from the Noun Project</text></svg>